<?xml version="1.0" encoding="UTF-8" standalone="no"?>
<!DOCTYPE svg PUBLIC "-//W3C//DTD SVG 1.1//EN" "http://www.w3.org/Graphics/SVG/1.1/DTD/svg11.dtd">
<svg width="100%" height="100%" viewBox="0 0 2134 2134" version="1.1" xmlns="http://www.w3.org/2000/svg" xmlns:xlink="http://www.w3.org/1999/xlink" xml:space="preserve" xmlns:serif="http://www.serif.com/" style="fill-rule:evenodd;clip-rule:evenodd;stroke-linejoin:round;stroke-miterlimit:2;">
    <g transform="matrix(2.66667,0,0,2.66667,0,0)">
        <g id="Text-files">
            <path d="M674.739,114.286L625.136,114.286C624.102,114.286 623.183,114.641 622.222,114.874L622.222,62.785C622.222,28.163 593.414,0 557.998,0L127.716,0C92.299,0 63.492,28.163 63.492,62.785L63.492,648.326C63.492,682.949 92.299,711.111 127.716,711.111L203.174,711.111L203.174,739.46C203.174,772.843 230.878,800 264.943,800L674.739,800C708.804,800 736.508,772.843 736.508,739.46L736.508,174.826C736.508,141.444 708.804,114.286 674.739,114.286ZM88.888,648.326L88.888,62.785C88.888,42.175 106.312,25.398 127.716,25.398L557.998,25.398C579.402,25.398 596.826,42.175 596.826,62.785L596.826,648.326C596.826,668.936 579.402,685.715 557.998,685.715L127.716,685.715C106.312,685.715 88.888,668.936 88.888,648.326ZM711.111,739.46C711.111,758.843 694.792,774.604 674.739,774.604L264.943,774.604C244.891,774.604 228.571,758.843 228.571,739.46L228.571,711.111L557.998,711.111C593.414,711.111 622.222,682.949 622.222,648.326L622.222,139.095C623.183,139.328 624.102,139.682 625.136,139.682L674.739,139.682C694.792,139.682 711.111,155.444 711.111,174.826L711.111,739.46L711.111,739.46Z" style="fill:rgb(74,223,134);fill-rule:nonzero;"/>
            <path d="M482.539,165.08L203.174,165.08C196.156,165.08 190.476,170.759 190.476,177.778C190.476,184.798 196.156,190.476 203.174,190.476L482.539,190.476C489.558,190.476 495.238,184.798 495.238,177.778C495.238,170.759 489.558,165.08 482.539,165.08Z" style="fill:rgb(74,223,134);fill-rule:nonzero;"/>
            <path d="M482.539,266.668L203.174,266.668C196.156,266.668 190.476,272.346 190.476,279.365C190.476,286.384 196.156,292.064 203.174,292.064L482.539,292.064C489.558,292.064 495.238,286.384 495.238,279.365C495.238,272.346 489.558,266.668 482.539,266.668Z" style="fill:rgb(74,223,134);fill-rule:nonzero;"/>
            <path d="M482.539,368.254L203.174,368.254C196.156,368.254 190.476,373.934 190.476,380.953C190.476,387.971 196.156,393.651 203.174,393.651L482.539,393.651C489.558,393.651 495.238,387.971 495.238,380.953C495.238,373.934 489.558,368.254 482.539,368.254Z" style="fill:rgb(74,223,134);fill-rule:nonzero;"/>
            <path d="M355.556,469.841L203.174,469.841C196.156,469.841 190.476,475.521 190.476,482.54C190.476,489.559 196.156,495.239 203.174,495.239L355.556,495.239C362.574,495.239 368.253,489.559 368.253,482.54C368.253,475.521 362.574,469.841 355.556,469.841Z" style="fill:rgb(74,223,134);fill-rule:nonzero;"/>
        </g>
    </g>
</svg>
